<?xml version="1.0" encoding="UTF-8" standalone="no"?>
<!-- Created with Inkscape (http://www.inkscape.org/) -->

<svg
   width="100mm"
   height="100mm"
   viewBox="0 0 100 100"
   version="1.1"
   id="svg5"
   inkscape:version="1.1.2 (b8e25be833, 2022-02-05)"
   sodipodi:docname="pocketlang.svg"
   xmlns:inkscape="http://www.inkscape.org/namespaces/inkscape"
   xmlns:sodipodi="http://sodipodi.sourceforge.net/DTD/sodipodi-0.dtd"
   xmlns="http://www.w3.org/2000/svg"
   xmlns:svg="http://www.w3.org/2000/svg">
  <sodipodi:namedview
     id="namedview7"
     pagecolor="#ffffff"
     bordercolor="#666666"
     borderopacity="1.0"
     inkscape:pageshadow="2"
     inkscape:pageopacity="0.0"
     inkscape:pagecheckerboard="0"
     inkscape:document-units="mm"
     showgrid="false"
     inkscape:zoom="0.5"
     inkscape:cx="119"
     inkscape:cy="-87"
     inkscape:window-width="1920"
     inkscape:window-height="1001"
     inkscape:window-x="-9"
     inkscape:window-y="-9"
     inkscape:window-maximized="1"
     inkscape:current-layer="layer1"
     inkscape:snap-text-baseline="true"
     width="199mm" />
  <defs
     id="defs2" />
  <g
     inkscape:groupmode="layer"
     id="layer1"
     inkscape:label="gear"
     style="display:inline">
    <path
       id="path25860"
       style="fill:#423242;fill-opacity:1;stroke:#020000;stroke-width:0.386648;stroke-miterlimit:4;stroke-dasharray:none;stroke-opacity:0"
       inkscape:transform-center-y="4.9342434e-05"
       d="m 29.790826,33.91526 a 29.910114,29.910114 0 0 0 -9.016695,3.466483 l 0.08978,4.453959 a 25.867964,25.867964 0 0 0 -5.589893,5.132439 L 11.009942,46.610772 A 29.910114,29.910114 0 0 0 7.0393484,55.3996 l 2.9485995,2.915788 a 25.867964,25.867964 0 0 0 -0.4937418,4.940797 25.867964,25.867964 0 0 0 0.2382273,3.416441 L 6.650911,69.370909 a 29.910114,29.910114 0 0 0 3.516557,9.037388 l 4.182933,-0.0899 a 25.867964,25.867964 0 0 0 5.282615,5.45697 l -0.338368,4.270995 a 29.910114,29.910114 0 0 0 8.951096,4.025823 l 3.048728,-3.276614 a 25.867964,25.867964 0 0 0 4.067263,0.328057 25.867964,25.867964 0 0 0 2.677552,-0.155187 l 3.012477,3.656408 a 29.910114,29.910114 0 0 0 9.049492,-3.145447 l -0.09842,-4.901051 a 25.867964,25.867964 0 0 0 5.405181,-4.985699 l 5.203203,0.43673 a 29.910114,29.910114 0 0 0 3.906725,-8.174207 l -3.770342,-3.728909 a 25.867964,25.867964 0 0 0 0.481648,-4.869998 25.867964,25.867964 0 0 0 -0.20545,-3.252416 l 4.022382,-3.521782 a 29.910114,29.910114 0 0 0 -3.293866,-8.3382 l -5.315408,0.113866 a 25.867964,25.867964 0 0 0 -5.201434,-5.422411 l 0.402241,-5.087537 a 29.910114,29.910114 0 0 0 -8.657614,-3.625304 l -3.366377,3.620132 a 25.867964,25.867964 0 0 0 -4.251975,-0.353883 25.867964,25.867964 0 0 0 -2.589519,0.146756 z m 6.009405,15.065808 A 14.057662,14.057662 0 0 1 49.857849,63.038664 14.057662,14.057662 0 0 1 35.800231,77.096291 14.057662,14.057662 0 0 1 21.74261,63.038664 14.057662,14.057662 0 0 1 35.800231,48.981068 Z"
       inkscape:transform-center-x="-6.7199755e-06" />
    <path
       id="path52641"
       style="fill:#423242;fill-opacity:1;stroke:#020000;stroke-width:0.230818;stroke-miterlimit:4;stroke-dasharray:none;stroke-opacity:0"
       inkscape:transform-center-y="2.9635219e-05"
       d="m 70.664075,11.59577 a 17.855509,17.855509 0 0 0 -5.382717,2.069394 l 0.0536,2.65889 a 15.442457,15.442457 0 0 0 -3.337011,3.063924 l -2.545535,-0.21334 a 17.855509,17.855509 0 0 0 -2.370334,5.246687 l 1.760232,1.740644 a 15.442457,15.442457 0 0 0 -0.29475,2.949519 15.442457,15.442457 0 0 0 0.142214,2.039521 l -1.839583,1.6108 a 17.855509,17.855509 0 0 0 2.099287,5.39507 l 2.497095,-0.05367 a 15.442457,15.442457 0 0 0 3.153575,3.25766 l -0.201996,2.549665 a 17.855509,17.855509 0 0 0 5.343556,2.403304 l 1.820006,-1.956047 a 15.442457,15.442457 0 0 0 2.428043,0.195841 15.442457,15.442457 0 0 0 1.598424,-0.09264 l 1.798365,2.182774 a 17.855509,17.855509 0 0 0 5.4023,-1.877744 l -0.05871,-2.925792 a 15.442457,15.442457 0 0 0 3.226743,-2.976324 l 3.106163,0.260716 a 17.855509,17.855509 0 0 0 2.332208,-4.879775 l -2.250787,-2.226055 a 15.442457,15.442457 0 0 0 0.287533,-2.907254 15.442457,15.442457 0 0 0 -0.122655,-1.941602 l 2.401254,-2.102407 a 17.855509,17.855509 0 0 0 -1.966348,-4.977675 l -3.17315,0.06797 a 15.442457,15.442457 0 0 0 -3.105114,-3.237028 l 0.24013,-3.037118 a 17.855509,17.855509 0 0 0 -5.16836,-2.164206 L 76.52812,13.88059 a 15.442457,15.442457 0 0 0 -2.538311,-0.211258 15.442457,15.442457 0 0 0 -1.545871,0.08761 z m 3.587448,8.993869 a 8.3920342,8.3920342 0 0 1 8.392007,8.391995 8.3920342,8.3920342 0 0 1 -8.392007,8.392013 8.3920342,8.3920342 0 0 1 -8.39201,-8.392013 8.3920342,8.3920342 0 0 1 8.39201,-8.391995 z"
       inkscape:transform-center-x="-6.8961349e-06" />
  </g>
</svg>
